<svg width="24" height="24" viewBox="0 0 24 24" fill="none" xmlns="http://www.w3.org/2000/svg">
<path d="M20.2226 0C21.6289 0 22.7614 1.137 22.8281 2.4765V24L20.1521 21.7267L18.6836 20.391L17.0779 18.9922L17.7461 21.1957H3.71062C2.30812 21.1957 1.17188 20.133 1.17188 18.7192V2.481C1.17188 1.1415 2.30888 0.0045 3.71513 0.0045H20.2151L20.2226 0ZM14.1049 5.6835H14.0734L13.8701 5.883C15.9446 6.4845 16.9481 7.422 16.9481 7.422C15.6124 6.75375 14.4049 6.41775 13.2019 6.28125C12.3349 6.1485 11.4634 6.219 10.7291 6.28125H10.5259C10.0571 6.28125 9.05738 6.4845 7.71713 7.01925C7.25213 7.2225 6.98288 7.35525 6.98288 7.35525C6.98288 7.35525 7.98263 6.351 10.1936 5.81625L10.0571 5.6835C10.0571 5.6835 8.38537 5.61675 6.58087 6.95325C6.58087 6.95325 4.77637 10.098 4.77637 13.9725C4.77637 13.9725 5.77613 15.711 8.51888 15.777C8.51888 15.777 8.92088 15.246 9.32363 14.7772C7.78463 14.3085 7.18313 13.371 7.18313 13.371C7.18313 13.371 7.31963 13.4377 7.51913 13.5705H7.57763C7.60913 13.5705 7.62488 13.5862 7.63988 13.602V13.6095C7.65563 13.6252 7.67138 13.6365 7.69838 13.6365C8.03063 13.773 8.35838 13.9058 8.62838 14.0385C9.09713 14.238 9.69488 14.4405 10.4291 14.574C11.3591 14.7105 12.4249 14.7735 13.6399 14.574C14.2376 14.4375 14.8391 14.3085 15.4406 14.0385C15.8276 13.839 16.3076 13.6402 16.8349 13.3005C16.8349 13.3005 16.2371 14.238 14.6314 14.7067C14.9599 15.1717 15.4241 15.7065 15.4241 15.7065C18.1699 15.6442 19.2364 13.9057 19.2949 13.98C19.2949 10.1092 17.4784 6.96075 17.4784 6.96075C15.8456 5.74575 14.3141 5.69925 14.0449 5.69925L14.0996 5.67975L14.1049 5.6835ZM14.2729 10.098C14.9764 10.098 15.5426 10.6957 15.5426 11.43C15.5426 12.1725 14.9726 12.7695 14.2729 12.7695C13.5694 12.7695 13.0031 12.1717 13.0031 11.4375C13.0031 10.695 13.5731 10.098 14.2729 10.098ZM9.73013 10.098C10.4291 10.098 10.9961 10.6957 10.9961 11.43C10.9961 12.1725 10.4261 12.7695 9.72638 12.7695C9.02288 12.7695 8.45288 12.1717 8.45288 11.4375C8.45288 10.695 9.02288 10.098 9.72638 10.098H9.73013Z" fill="#F5D0FE"/>
</svg>
